<mxfile host="app.diagrams.net" modified="2023-08-21T13:18:59.722Z" agent="Mozilla/5.0 (Windows NT 10.0; Win64; x64) AppleWebKit/537.36 (KHTML, like Gecko) Chrome/115.0.0.0 Safari/537.36" etag="NJG85qZE68t9ob6Ygo18" version="21.6.8" type="github">
  <diagram name="Page-1" id="c4acf3e9-155e-7222-9cf6-157b1a14988f">
    <mxGraphModel dx="1760" dy="1024" grid="1" gridSize="10" guides="1" tooltips="1" connect="1" arrows="1" fold="1" page="1" pageScale="1" pageWidth="850" pageHeight="1100" background="none" math="0" shadow="0">
      <root>
        <mxCell id="0" />
        <mxCell id="1" parent="0" />
        <mxCell id="17acba5748e5396b-1" value="frame" style="shape=umlFrame;whiteSpace=wrap;html=1;rounded=0;shadow=0;comic=0;labelBackgroundColor=none;strokeWidth=1;fontFamily=Verdana;fontSize=10;align=center;" parent="1" vertex="1">
          <mxGeometry x="20" width="1660" height="1740" as="geometry" />
        </mxCell>
        <mxCell id="bwZgKnfz8c7N0l1E8Si0-1" value="Field" style="swimlane;fontStyle=1;align=center;verticalAlign=top;childLayout=stackLayout;horizontal=1;startSize=26;horizontalStack=0;resizeParent=1;resizeParentMax=0;resizeLast=0;collapsible=1;marginBottom=0;whiteSpace=wrap;html=1;" vertex="1" parent="1">
          <mxGeometry x="750" y="80" width="180" height="112" as="geometry" />
        </mxCell>
        <mxCell id="bwZgKnfz8c7N0l1E8Si0-2" value="+ value: str" style="text;strokeColor=none;fillColor=none;align=left;verticalAlign=top;spacingLeft=4;spacingRight=4;overflow=hidden;rotatable=0;points=[[0,0.5],[1,0.5]];portConstraint=eastwest;whiteSpace=wrap;html=1;" vertex="1" parent="bwZgKnfz8c7N0l1E8Si0-1">
          <mxGeometry y="26" width="180" height="26" as="geometry" />
        </mxCell>
        <mxCell id="bwZgKnfz8c7N0l1E8Si0-3" value="" style="line;strokeWidth=1;fillColor=none;align=left;verticalAlign=middle;spacingTop=-1;spacingLeft=3;spacingRight=3;rotatable=0;labelPosition=right;points=[];portConstraint=eastwest;strokeColor=inherit;" vertex="1" parent="bwZgKnfz8c7N0l1E8Si0-1">
          <mxGeometry y="52" width="180" height="8" as="geometry" />
        </mxCell>
        <mxCell id="bwZgKnfz8c7N0l1E8Si0-4" value="+ __init__(in value: str): None" style="text;strokeColor=none;fillColor=none;align=left;verticalAlign=top;spacingLeft=4;spacingRight=4;overflow=hidden;rotatable=0;points=[[0,0.5],[1,0.5]];portConstraint=eastwest;whiteSpace=wrap;html=1;" vertex="1" parent="bwZgKnfz8c7N0l1E8Si0-1">
          <mxGeometry y="60" width="180" height="26" as="geometry" />
        </mxCell>
        <mxCell id="bwZgKnfz8c7N0l1E8Si0-5" value="+ __str__(): str" style="text;strokeColor=none;fillColor=none;align=left;verticalAlign=top;spacingLeft=4;spacingRight=4;overflow=hidden;rotatable=0;points=[[0,0.5],[1,0.5]];portConstraint=eastwest;whiteSpace=wrap;html=1;" vertex="1" parent="bwZgKnfz8c7N0l1E8Si0-1">
          <mxGeometry y="86" width="180" height="26" as="geometry" />
        </mxCell>
        <mxCell id="bwZgKnfz8c7N0l1E8Si0-6" value="Name" style="swimlane;fontStyle=1;align=center;verticalAlign=top;childLayout=stackLayout;horizontal=1;startSize=26;horizontalStack=0;resizeParent=1;resizeParentMax=0;resizeLast=0;collapsible=1;marginBottom=0;whiteSpace=wrap;html=1;" vertex="1" parent="1">
          <mxGeometry x="40" y="280" width="360" height="52" as="geometry" />
        </mxCell>
        <mxCell id="bwZgKnfz8c7N0l1E8Si0-9" value="+ __init__(in&amp;nbsp;first_name: str, in last_name&lt;span style=&quot;border-color: var(--border-color); background-color: initial;&quot;&gt;: str|None&lt;/span&gt;&lt;span style=&quot;background-color: initial;&quot;&gt;): None&lt;/span&gt;" style="text;strokeColor=none;fillColor=none;align=left;verticalAlign=top;spacingLeft=4;spacingRight=4;overflow=hidden;rotatable=0;points=[[0,0.5],[1,0.5]];portConstraint=eastwest;whiteSpace=wrap;html=1;" vertex="1" parent="bwZgKnfz8c7N0l1E8Si0-6">
          <mxGeometry y="26" width="360" height="26" as="geometry" />
        </mxCell>
        <mxCell id="bwZgKnfz8c7N0l1E8Si0-12" value="Phone" style="swimlane;fontStyle=1;align=center;verticalAlign=top;childLayout=stackLayout;horizontal=1;startSize=26;horizontalStack=0;resizeParent=1;resizeParentMax=0;resizeLast=0;collapsible=1;marginBottom=0;whiteSpace=wrap;html=1;" vertex="1" parent="1">
          <mxGeometry x="440" y="280" width="240" height="52" as="geometry" />
        </mxCell>
        <mxCell id="bwZgKnfz8c7N0l1E8Si0-13" value="+&amp;nbsp;is_correct_phone&lt;span style=&quot;background-color: initial;&quot;&gt;(in&amp;nbsp;value: str&lt;/span&gt;&lt;span style=&quot;background-color: initial;&quot;&gt;): bool&lt;/span&gt;" style="text;strokeColor=none;fillColor=none;align=left;verticalAlign=top;spacingLeft=4;spacingRight=4;overflow=hidden;rotatable=0;points=[[0,0.5],[1,0.5]];portConstraint=eastwest;whiteSpace=wrap;html=1;" vertex="1" parent="bwZgKnfz8c7N0l1E8Si0-12">
          <mxGeometry y="26" width="240" height="26" as="geometry" />
        </mxCell>
        <mxCell id="bwZgKnfz8c7N0l1E8Si0-16" value="Birthday" style="swimlane;fontStyle=1;align=center;verticalAlign=top;childLayout=stackLayout;horizontal=1;startSize=26;horizontalStack=0;resizeParent=1;resizeParentMax=0;resizeLast=0;collapsible=1;marginBottom=0;whiteSpace=wrap;html=1;" vertex="1" parent="1">
          <mxGeometry x="720" y="280" width="240" height="78" as="geometry" />
        </mxCell>
        <mxCell id="bwZgKnfz8c7N0l1E8Si0-17" value="+&amp;nbsp;is_empty_date&lt;span style=&quot;background-color: initial;&quot;&gt;(&lt;/span&gt;&lt;span style=&quot;background-color: initial;&quot;&gt;): bool&lt;/span&gt;" style="text;strokeColor=none;fillColor=none;align=left;verticalAlign=top;spacingLeft=4;spacingRight=4;overflow=hidden;rotatable=0;points=[[0,0.5],[1,0.5]];portConstraint=eastwest;whiteSpace=wrap;html=1;" vertex="1" parent="bwZgKnfz8c7N0l1E8Si0-16">
          <mxGeometry y="26" width="240" height="26" as="geometry" />
        </mxCell>
        <mxCell id="bwZgKnfz8c7N0l1E8Si0-18" value="+ __str__&lt;span style=&quot;background-color: initial;&quot;&gt;(&lt;/span&gt;&lt;span style=&quot;background-color: initial;&quot;&gt;): str&lt;/span&gt;" style="text;strokeColor=none;fillColor=none;align=left;verticalAlign=top;spacingLeft=4;spacingRight=4;overflow=hidden;rotatable=0;points=[[0,0.5],[1,0.5]];portConstraint=eastwest;whiteSpace=wrap;html=1;" vertex="1" parent="bwZgKnfz8c7N0l1E8Si0-16">
          <mxGeometry y="52" width="240" height="26" as="geometry" />
        </mxCell>
        <mxCell id="bwZgKnfz8c7N0l1E8Si0-19" value="Email" style="swimlane;fontStyle=1;align=center;verticalAlign=top;childLayout=stackLayout;horizontal=1;startSize=26;horizontalStack=0;resizeParent=1;resizeParentMax=0;resizeLast=0;collapsible=1;marginBottom=0;whiteSpace=wrap;html=1;" vertex="1" parent="1">
          <mxGeometry x="1000" y="280" width="240" height="52" as="geometry" />
        </mxCell>
        <mxCell id="bwZgKnfz8c7N0l1E8Si0-20" value="+&amp;nbsp;is_correct_email&lt;span style=&quot;background-color: initial;&quot;&gt;(&lt;/span&gt;&lt;span style=&quot;background-color: initial;&quot;&gt;): bool&lt;/span&gt;" style="text;strokeColor=none;fillColor=none;align=left;verticalAlign=top;spacingLeft=4;spacingRight=4;overflow=hidden;rotatable=0;points=[[0,0.5],[1,0.5]];portConstraint=eastwest;whiteSpace=wrap;html=1;" vertex="1" parent="bwZgKnfz8c7N0l1E8Si0-19">
          <mxGeometry y="26" width="240" height="26" as="geometry" />
        </mxCell>
        <mxCell id="bwZgKnfz8c7N0l1E8Si0-24" value="" style="endArrow=block;endSize=16;endFill=0;html=1;rounded=0;exitX=0.5;exitY=0;exitDx=0;exitDy=0;entryX=0.499;entryY=1.047;entryDx=0;entryDy=0;entryPerimeter=0;snapToPoint=0;fixDash=0;enumerate=0;orthogonal=0;comic=0;flowAnimation=0;ignoreEdge=0;" edge="1" parent="1" source="bwZgKnfz8c7N0l1E8Si0-6" target="bwZgKnfz8c7N0l1E8Si0-5">
          <mxGeometry x="0.125" y="40" width="160" relative="1" as="geometry">
            <mxPoint x="170" y="430" as="sourcePoint" />
            <mxPoint x="849" y="200" as="targetPoint" />
            <Array as="points">
              <mxPoint x="220" y="240" />
              <mxPoint x="760" y="240" />
              <mxPoint x="840" y="240" />
            </Array>
            <mxPoint as="offset" />
          </mxGeometry>
        </mxCell>
        <mxCell id="bwZgKnfz8c7N0l1E8Si0-22" value="Address" style="swimlane;fontStyle=1;align=center;verticalAlign=top;childLayout=stackLayout;horizontal=1;startSize=26;horizontalStack=0;resizeParent=1;resizeParentMax=0;resizeLast=0;collapsible=1;marginBottom=0;whiteSpace=wrap;html=1;" vertex="1" parent="1">
          <mxGeometry x="1280" y="280" width="240" height="52" as="geometry" />
        </mxCell>
        <mxCell id="bwZgKnfz8c7N0l1E8Si0-23" value="+ __init__(in value: str): None" style="text;strokeColor=none;fillColor=none;align=left;verticalAlign=top;spacingLeft=4;spacingRight=4;overflow=hidden;rotatable=0;points=[[0,0.5],[1,0.5]];portConstraint=eastwest;whiteSpace=wrap;html=1;" vertex="1" parent="bwZgKnfz8c7N0l1E8Si0-22">
          <mxGeometry y="26" width="240" height="26" as="geometry" />
        </mxCell>
        <mxCell id="bwZgKnfz8c7N0l1E8Si0-37" value="" style="endArrow=none;html=1;rounded=0;exitX=0.5;exitY=0;exitDx=0;exitDy=0;" edge="1" parent="1" source="bwZgKnfz8c7N0l1E8Si0-12">
          <mxGeometry width="50" height="50" relative="1" as="geometry">
            <mxPoint x="590" y="270" as="sourcePoint" />
            <mxPoint x="560" y="240" as="targetPoint" />
          </mxGeometry>
        </mxCell>
        <mxCell id="bwZgKnfz8c7N0l1E8Si0-38" value="" style="endArrow=none;html=1;rounded=0;exitX=0.5;exitY=0;exitDx=0;exitDy=0;" edge="1" parent="1" source="bwZgKnfz8c7N0l1E8Si0-16">
          <mxGeometry width="50" height="50" relative="1" as="geometry">
            <mxPoint x="590" y="270" as="sourcePoint" />
            <mxPoint x="840" y="240" as="targetPoint" />
          </mxGeometry>
        </mxCell>
        <mxCell id="bwZgKnfz8c7N0l1E8Si0-39" value="" style="endArrow=none;html=1;rounded=0;exitX=0.5;exitY=0;exitDx=0;exitDy=0;" edge="1" parent="1" source="bwZgKnfz8c7N0l1E8Si0-22">
          <mxGeometry width="50" height="50" relative="1" as="geometry">
            <mxPoint x="1070" y="270" as="sourcePoint" />
            <mxPoint x="840" y="240" as="targetPoint" />
            <Array as="points">
              <mxPoint x="1400" y="240" />
              <mxPoint x="1120" y="240" />
            </Array>
          </mxGeometry>
        </mxCell>
        <mxCell id="bwZgKnfz8c7N0l1E8Si0-40" value="" style="endArrow=none;html=1;rounded=0;exitX=0.5;exitY=0;exitDx=0;exitDy=0;" edge="1" parent="1" source="bwZgKnfz8c7N0l1E8Si0-19">
          <mxGeometry width="50" height="50" relative="1" as="geometry">
            <mxPoint x="1020" y="540" as="sourcePoint" />
            <mxPoint x="1120" y="240" as="targetPoint" />
          </mxGeometry>
        </mxCell>
        <mxCell id="bwZgKnfz8c7N0l1E8Si0-44" value="Record" style="swimlane;fontStyle=1;align=center;verticalAlign=top;childLayout=stackLayout;horizontal=1;startSize=26;horizontalStack=0;resizeParent=1;resizeParentMax=0;resizeLast=0;collapsible=1;marginBottom=0;whiteSpace=wrap;html=1;" vertex="1" parent="1">
          <mxGeometry x="440" y="438" width="800" height="372" as="geometry" />
        </mxCell>
        <mxCell id="bwZgKnfz8c7N0l1E8Si0-45" value="+ name: Name" style="text;strokeColor=none;fillColor=none;align=left;verticalAlign=top;spacingLeft=4;spacingRight=4;overflow=hidden;rotatable=0;points=[[0,0.5],[1,0.5]];portConstraint=eastwest;whiteSpace=wrap;html=1;" vertex="1" parent="bwZgKnfz8c7N0l1E8Si0-44">
          <mxGeometry y="26" width="800" height="26" as="geometry" />
        </mxCell>
        <mxCell id="bwZgKnfz8c7N0l1E8Si0-50" value="+ phones: list" style="text;strokeColor=none;fillColor=none;align=left;verticalAlign=top;spacingLeft=4;spacingRight=4;overflow=hidden;rotatable=0;points=[[0,0.5],[1,0.5]];portConstraint=eastwest;whiteSpace=wrap;html=1;" vertex="1" parent="bwZgKnfz8c7N0l1E8Si0-44">
          <mxGeometry y="52" width="800" height="26" as="geometry" />
        </mxCell>
        <mxCell id="bwZgKnfz8c7N0l1E8Si0-51" value="+ birthday: Birthday" style="text;strokeColor=none;fillColor=none;align=left;verticalAlign=top;spacingLeft=4;spacingRight=4;overflow=hidden;rotatable=0;points=[[0,0.5],[1,0.5]];portConstraint=eastwest;whiteSpace=wrap;html=1;" vertex="1" parent="bwZgKnfz8c7N0l1E8Si0-44">
          <mxGeometry y="78" width="800" height="26" as="geometry" />
        </mxCell>
        <mxCell id="bwZgKnfz8c7N0l1E8Si0-52" value="+ email: Email" style="text;strokeColor=none;fillColor=none;align=left;verticalAlign=top;spacingLeft=4;spacingRight=4;overflow=hidden;rotatable=0;points=[[0,0.5],[1,0.5]];portConstraint=eastwest;whiteSpace=wrap;html=1;" vertex="1" parent="bwZgKnfz8c7N0l1E8Si0-44">
          <mxGeometry y="104" width="800" height="26" as="geometry" />
        </mxCell>
        <mxCell id="bwZgKnfz8c7N0l1E8Si0-53" value="+ address: Address" style="text;strokeColor=none;fillColor=none;align=left;verticalAlign=top;spacingLeft=4;spacingRight=4;overflow=hidden;rotatable=0;points=[[0,0.5],[1,0.5]];portConstraint=eastwest;whiteSpace=wrap;html=1;" vertex="1" parent="bwZgKnfz8c7N0l1E8Si0-44">
          <mxGeometry y="130" width="800" height="26" as="geometry" />
        </mxCell>
        <mxCell id="bwZgKnfz8c7N0l1E8Si0-46" value="" style="line;strokeWidth=1;fillColor=none;align=left;verticalAlign=middle;spacingTop=-1;spacingLeft=3;spacingRight=3;rotatable=0;labelPosition=right;points=[];portConstraint=eastwest;strokeColor=inherit;" vertex="1" parent="bwZgKnfz8c7N0l1E8Si0-44">
          <mxGeometry y="156" width="800" height="8" as="geometry" />
        </mxCell>
        <mxCell id="bwZgKnfz8c7N0l1E8Si0-54" value="+ __init__(in name: Name, in phones: lst|None, in birthday: Birthday|None, in email: Email|None, in address: Address|None): None" style="text;strokeColor=none;fillColor=none;align=left;verticalAlign=top;spacingLeft=4;spacingRight=4;overflow=hidden;rotatable=0;points=[[0,0.5],[1,0.5]];portConstraint=eastwest;whiteSpace=wrap;html=1;" vertex="1" parent="bwZgKnfz8c7N0l1E8Si0-44">
          <mxGeometry y="164" width="800" height="26" as="geometry" />
        </mxCell>
        <mxCell id="bwZgKnfz8c7N0l1E8Si0-47" value="+&amp;nbsp;change_birthday&lt;span style=&quot;background-color: initial;&quot;&gt;(in new_birthday: Birthday): None&lt;/span&gt;" style="text;strokeColor=none;fillColor=none;align=left;verticalAlign=top;spacingLeft=4;spacingRight=4;overflow=hidden;rotatable=0;points=[[0,0.5],[1,0.5]];portConstraint=eastwest;whiteSpace=wrap;html=1;" vertex="1" parent="bwZgKnfz8c7N0l1E8Si0-44">
          <mxGeometry y="190" width="800" height="26" as="geometry" />
        </mxCell>
        <mxCell id="bwZgKnfz8c7N0l1E8Si0-55" value="+&amp;nbsp;change_email&lt;span style=&quot;background-color: initial;&quot;&gt;(in new_email: Email): None&lt;/span&gt;" style="text;strokeColor=none;fillColor=none;align=left;verticalAlign=top;spacingLeft=4;spacingRight=4;overflow=hidden;rotatable=0;points=[[0,0.5],[1,0.5]];portConstraint=eastwest;whiteSpace=wrap;html=1;" vertex="1" parent="bwZgKnfz8c7N0l1E8Si0-44">
          <mxGeometry y="216" width="800" height="26" as="geometry" />
        </mxCell>
        <mxCell id="bwZgKnfz8c7N0l1E8Si0-56" value="+&amp;nbsp;change_adress&lt;span style=&quot;background-color: initial;&quot;&gt;(in new_adress: Address): None&lt;/span&gt;" style="text;strokeColor=none;fillColor=none;align=left;verticalAlign=top;spacingLeft=4;spacingRight=4;overflow=hidden;rotatable=0;points=[[0,0.5],[1,0.5]];portConstraint=eastwest;whiteSpace=wrap;html=1;" vertex="1" parent="bwZgKnfz8c7N0l1E8Si0-44">
          <mxGeometry y="242" width="800" height="26" as="geometry" />
        </mxCell>
        <mxCell id="bwZgKnfz8c7N0l1E8Si0-57" value="+&amp;nbsp;add_phone&lt;span style=&quot;background-color: initial;&quot;&gt;(in phone: Phone): None&lt;/span&gt;" style="text;strokeColor=none;fillColor=none;align=left;verticalAlign=top;spacingLeft=4;spacingRight=4;overflow=hidden;rotatable=0;points=[[0,0.5],[1,0.5]];portConstraint=eastwest;whiteSpace=wrap;html=1;" vertex="1" parent="bwZgKnfz8c7N0l1E8Si0-44">
          <mxGeometry y="268" width="800" height="26" as="geometry" />
        </mxCell>
        <mxCell id="bwZgKnfz8c7N0l1E8Si0-58" value="+&amp;nbsp;change_phone&lt;span style=&quot;background-color: initial;&quot;&gt;(in old_phone: Phone, new_phone: Phone): None&lt;/span&gt;" style="text;strokeColor=none;fillColor=none;align=left;verticalAlign=top;spacingLeft=4;spacingRight=4;overflow=hidden;rotatable=0;points=[[0,0.5],[1,0.5]];portConstraint=eastwest;whiteSpace=wrap;html=1;" vertex="1" parent="bwZgKnfz8c7N0l1E8Si0-44">
          <mxGeometry y="294" width="800" height="26" as="geometry" />
        </mxCell>
        <mxCell id="bwZgKnfz8c7N0l1E8Si0-59" value="+&amp;nbsp;change_name&lt;span style=&quot;background-color: initial;&quot;&gt;(in new_name: Name): None&lt;/span&gt;" style="text;strokeColor=none;fillColor=none;align=left;verticalAlign=top;spacingLeft=4;spacingRight=4;overflow=hidden;rotatable=0;points=[[0,0.5],[1,0.5]];portConstraint=eastwest;whiteSpace=wrap;html=1;" vertex="1" parent="bwZgKnfz8c7N0l1E8Si0-44">
          <mxGeometry y="320" width="800" height="26" as="geometry" />
        </mxCell>
        <mxCell id="bwZgKnfz8c7N0l1E8Si0-48" value="+ __str__(): str" style="text;strokeColor=none;fillColor=none;align=left;verticalAlign=top;spacingLeft=4;spacingRight=4;overflow=hidden;rotatable=0;points=[[0,0.5],[1,0.5]];portConstraint=eastwest;whiteSpace=wrap;html=1;" vertex="1" parent="bwZgKnfz8c7N0l1E8Si0-44">
          <mxGeometry y="346" width="800" height="26" as="geometry" />
        </mxCell>
        <mxCell id="bwZgKnfz8c7N0l1E8Si0-60" value="AddressBook" style="swimlane;fontStyle=1;align=center;verticalAlign=top;childLayout=stackLayout;horizontal=1;startSize=26;horizontalStack=0;resizeParent=1;resizeParentMax=0;resizeLast=0;collapsible=1;marginBottom=0;whiteSpace=wrap;html=1;" vertex="1" parent="1">
          <mxGeometry x="640" y="1100" width="400" height="104" as="geometry" />
        </mxCell>
        <mxCell id="bwZgKnfz8c7N0l1E8Si0-67" value="+ __init__(): None" style="text;strokeColor=none;fillColor=none;align=left;verticalAlign=top;spacingLeft=4;spacingRight=4;overflow=hidden;rotatable=0;points=[[0,0.5],[1,0.5]];portConstraint=eastwest;whiteSpace=wrap;html=1;" vertex="1" parent="bwZgKnfz8c7N0l1E8Si0-60">
          <mxGeometry y="26" width="400" height="26" as="geometry" />
        </mxCell>
        <mxCell id="bwZgKnfz8c7N0l1E8Si0-68" value="+&amp;nbsp;add_record&lt;span style=&quot;background-color: initial;&quot;&gt;(in record: Record): str&lt;/span&gt;" style="text;strokeColor=none;fillColor=none;align=left;verticalAlign=top;spacingLeft=4;spacingRight=4;overflow=hidden;rotatable=0;points=[[0,0.5],[1,0.5]];portConstraint=eastwest;whiteSpace=wrap;html=1;" vertex="1" parent="bwZgKnfz8c7N0l1E8Si0-60">
          <mxGeometry y="52" width="400" height="26" as="geometry" />
        </mxCell>
        <mxCell id="bwZgKnfz8c7N0l1E8Si0-74" value="+ __str__(): str" style="text;strokeColor=none;fillColor=none;align=left;verticalAlign=top;spacingLeft=4;spacingRight=4;overflow=hidden;rotatable=0;points=[[0,0.5],[1,0.5]];portConstraint=eastwest;whiteSpace=wrap;html=1;" vertex="1" parent="bwZgKnfz8c7N0l1E8Si0-60">
          <mxGeometry y="78" width="400" height="26" as="geometry" />
        </mxCell>
        <mxCell id="bwZgKnfz8c7N0l1E8Si0-75" value="UserDict" style="swimlane;fontStyle=1;align=center;verticalAlign=top;childLayout=stackLayout;horizontal=1;startSize=26;horizontalStack=0;resizeParent=1;resizeParentMax=0;resizeLast=0;collapsible=1;marginBottom=0;whiteSpace=wrap;html=1;" vertex="1" parent="1">
          <mxGeometry x="760" y="920" width="160" height="52" as="geometry" />
        </mxCell>
        <mxCell id="bwZgKnfz8c7N0l1E8Si0-80" value="" style="endArrow=block;endSize=16;endFill=0;html=1;rounded=0;entryX=0.5;entryY=1;entryDx=0;entryDy=0;" edge="1" parent="1" source="bwZgKnfz8c7N0l1E8Si0-60" target="bwZgKnfz8c7N0l1E8Si0-75">
          <mxGeometry width="160" relative="1" as="geometry">
            <mxPoint x="860" y="1050" as="sourcePoint" />
            <mxPoint x="1020" y="1050" as="targetPoint" />
          </mxGeometry>
        </mxCell>
      </root>
    </mxGraphModel>
  </diagram>
</mxfile>
